<?xml version="1.0" encoding="UTF-8" standalone="no"?>
<!-- Created with Inkscape (http://www.inkscape.org/) -->

<svg
   xmlns:dc="http://purl.org/dc/elements/1.1/"
   xmlns:cc="http://creativecommons.org/ns#"
   xmlns:rdf="http://www.w3.org/1999/02/22-rdf-syntax-ns#"
   xmlns:svg="http://www.w3.org/2000/svg"
   xmlns="http://www.w3.org/2000/svg"
   xmlns:sodipodi="http://sodipodi.sourceforge.net/DTD/sodipodi-0.dtd"
   xmlns:inkscape="http://www.inkscape.org/namespaces/inkscape"
   width="232"
   height="84.000015"
   viewBox="0 0 61.383331 22.225004"
   version="1.1"
   id="svg8"
   inkscape:version="0.92.5 (2060ec1f9f, 2020-04-08)"
   sodipodi:docname="footprint_tiles.svg">
  <defs
     id="defs2" />
  <sodipodi:namedview
     id="base"
     pagecolor="#ffffff"
     bordercolor="#666666"
     borderopacity="1.0"
     inkscape:pageopacity="0.0"
     inkscape:pageshadow="2"
     inkscape:zoom="2"
     inkscape:cx="76.219652"
     inkscape:cy="79.512982"
     inkscape:document-units="mm"
     inkscape:current-layer="g912"
     showgrid="true"
     units="px"
     inkscape:snap-grids="true"
     viewbox-x="0"
     viewbox-y="0"
     fit-margin-left="10"
     fit-margin-top="10"
     fit-margin-right="10"
     fit-margin-bottom="10"
     inkscape:snap-global="true"
     inkscape:window-width="958"
     inkscape:window-height="1078"
     inkscape:window-x="0"
     inkscape:window-y="0"
     inkscape:window-maximized="0">
    <inkscape:grid
       type="xygrid"
       id="grid913"
       spacingx="19.579166"
       spacingy="19.579166"
       empspacing="1"
       originx="1.487752e-07"
       originy="4.8508972e-06" />
    <inkscape:grid
       type="xygrid"
       id="grid915"
       spacingx="19.579166"
       spacingy="19.579166"
       color="#3f3fff"
       opacity="0.1254902"
       empcolor="#3f3fff"
       empopacity="0.25098039"
       empspacing="1"
       originx="2.6458332"
       originy="2.6458382" />
  </sodipodi:namedview>
  <metadata
     id="metadata5">
    <rdf:RDF>
      <cc:Work
         rdf:about="">
        <dc:format>image/svg+xml</dc:format>
        <dc:type
           rdf:resource="http://purl.org/dc/dcmitype/StillImage" />
        <dc:title />
      </cc:Work>
    </rdf:RDF>
  </metadata>
  <g
     inkscape:label="Layer 1"
     inkscape:groupmode="layer"
     id="layer1"
     transform="translate(2.6458331,-277.42084)">
    <g
       id="g879">
      <rect
         y="280.06668"
         x="2e-07"
         height="16.933332"
         width="16.933332"
         id="rect864"
         style="fill:#ff6600;fill-opacity:1;fill-rule:nonzero;stroke:none;stroke-width:3.96875;stroke-linejoin:round;stroke-miterlimit:4;stroke-dasharray:none;stroke-opacity:1;paint-order:markers stroke fill" />
      <g
         aria-label="solid"
         style="font-style:normal;font-variant:normal;font-weight:normal;font-stretch:normal;font-size:26.45833206px;line-height:1.25;font-family:'DejaVu Serif';-inkscape-font-specification:'DejaVu Serif';letter-spacing:0px;word-spacing:0px;fill:#000000;fill-opacity:1;stroke:none;stroke-width:0.26458332"
         id="text868">
        <path
           d="m 4.7582803,289.36731 q 0.0254,0.19897 0.1354667,0.3175 0.1143,0.1143 0.4063999,0.1143 0.2328334,0 0.3725334,-0.0931 0.1439333,-0.0974 0.1439333,-0.254 0,-0.12277 -0.080433,-0.19474 -0.080433,-0.072 -0.2624666,-0.1143 l -0.3302,-0.0804 q -0.3937,-0.0931 -0.5503333,-0.23283 -0.1524,-0.14394 -0.1524,-0.4064 0,-0.30904 0.2328333,-0.49107 0.2328334,-0.18627 0.6180667,-0.18627 0.3852333,0 0.5926666,0.1778 0.2074333,0.1778 0.2116667,0.50377 H 5.7234802 q -0.0127,-0.3556 -0.4444999,-0.3556 -0.2159,0 -0.3429,0.0931 -0.127,0.0889 -0.127,0.2413 0,0.11854 0.097367,0.19474 0.097367,0.072 0.3132666,0.12276 l 0.3386667,0.0804 q 0.3301999,0.0804 0.4783666,0.2286 0.1481667,0.14393 0.1481667,0.38946 0,0.32174 -0.2497667,0.51224 -0.2455333,0.1905 -0.6646333,0.1905 -0.8593666,0 -0.8847666,-0.75777 z"
           style="font-style:normal;font-variant:normal;font-weight:normal;font-stretch:normal;font-size:4.23333311px;font-family:FreeSans;-inkscape-font-specification:FreeSans;fill:#ffffff;stroke-width:0.26458332"
           id="path31" />
        <path
           d="m 7.4549054,287.74594 q 0.4783667,0 0.7408333,0.3175 0.2667,0.31327 0.2667,0.889 0,0.5461 -0.2709333,0.85937 -0.2667,0.31327 -0.7323666,0.31327 -0.4741333,0 -0.7408333,-0.31327 -0.2624667,-0.3175 -0.2624667,-0.8763 0,-0.5588 0.2667,-0.87207 0.2667,-0.3175 0.7323666,-0.3175 z m 0.00423,0.32597 q -0.2963334,0 -0.4656667,0.23283 -0.1693333,0.2286 -0.1693333,0.63077 0,0.40217 0.1693333,0.635 0.1693333,0.2286 0.4656667,0.2286 0.2921,0 0.4614333,-0.2286 0.1735666,-0.23283 0.1735666,-0.6223 0,-0.41063 -0.1693333,-0.64347 -0.1651,-0.23283 -0.4656666,-0.23283 z"
           style="font-style:normal;font-variant:normal;font-weight:normal;font-stretch:normal;font-size:4.23333311px;font-family:FreeSans;-inkscape-font-specification:FreeSans;fill:#ffffff;stroke-width:0.26458332"
           id="path33" />
        <path
           d="m 9.1990322,286.94161 v 3.0861 h -0.3556 v -3.0861 z"
           style="font-style:normal;font-variant:normal;font-weight:normal;font-stretch:normal;font-size:4.23333311px;font-family:FreeSans;-inkscape-font-specification:FreeSans;fill:#ffffff;stroke-width:0.26458332"
           id="path35" />
        <path
           d="m 10.13036,287.80944 v 2.21827 H 9.7789937 v -2.21827 z m 0,-0.86783 v 0.4445 H 9.7747604 v -0.4445 z"
           style="font-style:normal;font-variant:normal;font-weight:normal;font-stretch:normal;font-size:4.23333311px;font-family:FreeSans;-inkscape-font-specification:FreeSans;fill:#ffffff;stroke-width:0.26458332"
           id="path37" />
        <path
           d="m 12.547586,286.94161 v 3.0861 H 12.23432 v -0.2921 q -0.143934,0.20743 -0.313267,0.29633 -0.1651,0.0931 -0.3937,0.0931 -0.448733,0 -0.706967,-0.32174 -0.258233,-0.32596 -0.258233,-0.889 0,-0.52916 0.258233,-0.84666 0.262467,-0.32174 0.694267,-0.32174 0.4572,0 0.681567,0.3429 v -1.14723 z m -0.973666,1.13453 q -0.287867,0 -0.465667,0.23707 -0.1778,0.23707 -0.1778,0.6223 0,0.38947 0.1778,0.62653 0.1778,0.23284 0.4699,0.23284 0.2794,0 0.448733,-0.23284 0.169334,-0.23283 0.169334,-0.61806 0,-0.39794 -0.169334,-0.63077 -0.169333,-0.23707 -0.452966,-0.23707 z"
           style="font-style:normal;font-variant:normal;font-weight:normal;font-stretch:normal;font-size:4.23333311px;font-family:FreeSans;-inkscape-font-specification:FreeSans;fill:#ffffff;stroke-width:0.26458332"
           id="path39" />
      </g>
    </g>
    <g
       id="g887"
       transform="translate(19.579167,-5.0743266e-6)">
      <rect
         style="fill:#000000;fill-opacity:1;fill-rule:nonzero;stroke:none;stroke-width:3.96875;stroke-linejoin:round;stroke-miterlimit:4;stroke-dasharray:none;stroke-opacity:1;paint-order:markers stroke fill"
         id="rect881"
         width="16.933332"
         height="16.933332"
         x="-8.0000001e-07"
         y="280.06668" />
      <text
         xml:space="preserve"
         style="font-style:normal;font-variant:normal;font-weight:normal;font-stretch:normal;font-size:26.45833206px;line-height:1.25;font-family:'DejaVu Serif';-inkscape-font-specification:'DejaVu Serif';letter-spacing:0px;word-spacing:0px;fill:#000000;fill-opacity:1;stroke:none;stroke-width:0.26458332"
         x="2.8829114"
         y="290.02771"
         id="text885"><tspan
           sodipodi:role="line"
           id="tspan883"
           x="2.8829114"
           y="290.02771"
           style="font-style:normal;font-variant:normal;font-weight:normal;font-stretch:normal;font-size:4.23333311px;font-family:FreeSans;-inkscape-font-specification:FreeSans;fill:#ffffff;stroke-width:0.26458332">space</tspan></text>
      <g
         aria-label="space"
         style="font-style:normal;font-variant:normal;font-weight:normal;font-stretch:normal;font-size:26.45833206px;line-height:1.25;font-family:'DejaVu Serif';-inkscape-font-specification:'DejaVu Serif';letter-spacing:0px;word-spacing:0px;fill:#000000;fill-opacity:1;stroke:none;stroke-width:0.26458332"
         id="text904">
        <path
           d="m 3.3993781,289.36731 q 0.0254,0.19897 0.1354666,0.3175 0.1143,0.1143 0.4064,0.1143 0.2328333,0 0.3725333,-0.0931 0.1439334,-0.0974 0.1439334,-0.254 0,-0.12277 -0.080433,-0.19474 -0.080433,-0.072 -0.2624666,-0.1143 l -0.3302,-0.0804 q -0.3937,-0.0931 -0.5503333,-0.23283 -0.1524,-0.14394 -0.1524,-0.4064 0,-0.30904 0.2328333,-0.49107 0.2328333,-0.18627 0.6180667,-0.18627 0.3852333,0 0.5926666,0.1778 0.2074333,0.1778 0.2116666,0.50377 H 4.364578 q -0.0127,-0.3556 -0.4444999,-0.3556 -0.2159,0 -0.3429,0.0931 -0.127,0.0889 -0.127,0.2413 0,0.11854 0.097367,0.19474 0.097367,0.072 0.3132667,0.12276 l 0.3386666,0.0804 q 0.3302,0.0804 0.4783667,0.2286 0.1481666,0.14393 0.1481666,0.38946 0,0.32174 -0.2497666,0.51224 -0.2455333,0.1905 -0.6646333,0.1905 -0.8593666,0 -0.8847666,-0.75777 z"
           style="font-style:normal;font-variant:normal;font-weight:normal;font-stretch:normal;font-size:4.23333311px;font-family:FreeSans;-inkscape-font-specification:FreeSans;fill:#ffffff;stroke-width:0.26458332"
           id="path42" />
        <path
           d="m 5.2239366,290.95058 v -3.14114 h 0.3259666 v 0.33444 q 0.2497667,-0.39794 0.7069667,-0.39794 0.4402666,0 0.6942666,0.32597 0.2582333,0.32597 0.2582333,0.88477 0,0.52916 -0.2624666,0.8509 -0.2582333,0.3175 -0.6858,0.3175 -0.4106333,0 -0.6815666,-0.3302 v 1.1557 z m 0.9736666,-2.87444 q -0.2794,0 -0.4487333,0.23707 -0.1693333,0.23283 -0.1693333,0.6223 0,0.38947 0.1693333,0.62653 0.1693333,0.23284 0.4487333,0.23284 0.2878667,0 0.4656667,-0.23284 0.1777999,-0.23706 0.1777999,-0.61383 0,-0.39793 -0.1777999,-0.635 -0.1735667,-0.23707 -0.4656667,-0.23707 z"
           style="font-style:normal;font-variant:normal;font-weight:normal;font-stretch:normal;font-size:4.23333311px;font-family:FreeSans;-inkscape-font-specification:FreeSans;fill:#ffffff;stroke-width:0.26458332"
           id="path44" />
        <path
           d="m 7.5607283,288.46561 q 0.0254,-0.71967 0.889,-0.71967 0.4106333,0 0.6222999,0.15664 0.2116667,0.1524 0.2116667,0.44873 v 1.30387 q 0,0.17356 0.1905,0.17356 0.0381,0 0.0762,-0.008 v 0.2667 q -0.1481667,0.0381 -0.2413,0.0381 -0.1693333,0 -0.2582333,-0.0804 -0.084667,-0.0762 -0.1058334,-0.24553 -0.3556,0.32597 -0.7535333,0.32597 -0.3344333,0 -0.5333999,-0.1778 -0.1947334,-0.1778 -0.1947334,-0.47837 0,-0.0974 0.016933,-0.1778 0.021167,-0.0804 0.042333,-0.1397 0.0254,-0.0635 0.084667,-0.1143 0.059267,-0.055 0.097367,-0.0889 0.042333,-0.0339 0.1354667,-0.0635 0.097367,-0.0339 0.1481666,-0.0466 0.0508,-0.0169 0.1778,-0.0381 0.127,-0.0212 0.1862667,-0.0296 0.059267,-0.008 0.2116666,-0.0296 0.2074334,-0.0254 0.2878667,-0.0804 0.080433,-0.055 0.080433,-0.1651 v -0.0931 q 0,-0.16087 -0.1312333,-0.24553 -0.127,-0.0847 -0.3640666,-0.0847 -0.2455334,0 -0.3725334,0.0974 -0.127,0.0931 -0.1481666,0.29633 z m 0.7069666,1.35043 q 0.2921,0 0.4783667,-0.1524 0.1862666,-0.15663 0.1862666,-0.33443 v -0.39793 q -0.1058333,0.0508 -0.3217333,0.0847 -0.2116666,0.0339 -0.3683,0.0593 -0.1566333,0.0254 -0.2836333,0.12277 -0.127,0.0931 -0.127,0.26246 0,0.16934 0.1143,0.26247 0.1143,0.0931 0.3217333,0.0931 z"
           style="font-style:normal;font-variant:normal;font-weight:normal;font-stretch:normal;font-size:4.23333311px;font-family:FreeSans;-inkscape-font-specification:FreeSans;fill:#ffffff;stroke-width:0.26458332"
           id="path46" />
        <path
           d="m 11.624725,288.55451 h -0.3556 q -0.03387,-0.23283 -0.169333,-0.3556 -0.135467,-0.127 -0.3556,-0.127 -0.287867,0 -0.452967,0.23707 -0.160866,0.23283 -0.160866,0.6477 0,0.3937 0.1651,0.61806 0.1651,0.22437 0.4572,0.22437 0.452966,0 0.541866,-0.5334 h 0.3556 q -0.03387,0.4064 -0.270933,0.635 -0.237067,0.22437 -0.635,0.22437 -0.452967,0 -0.719667,-0.31327 -0.2624664,-0.3175 -0.2624664,-0.85513 0,-0.55034 0.2667004,-0.88054 0.270933,-0.3302 0.719666,-0.3302 0.385234,0 0.613834,0.20744 0.232833,0.20743 0.262466,0.60113 z"
           style="font-style:normal;font-variant:normal;font-weight:normal;font-stretch:normal;font-size:4.23333311px;font-family:FreeSans;-inkscape-font-specification:FreeSans;fill:#ffffff;stroke-width:0.26458332"
           id="path48" />
        <path
           d="m 13.906486,289.03711 h -1.634067 q 0.0085,0.34713 0.1778,0.55457 0.173567,0.20743 0.474134,0.20743 0.4318,0 0.579966,-0.4445 h 0.3556 q -0.06773,0.36407 -0.3175,0.56727 -0.249766,0.2032 -0.630766,0.2032 -0.465667,0 -0.7366,-0.31327 -0.270934,-0.3175 -0.270934,-0.8636 0,-0.5461 0.275167,-0.87207 0.2794,-0.3302 0.740833,-0.3302 0.986367,0 0.986367,1.29117 z m -1.6256,-0.28787 h 1.248833 q 0,-0.28786 -0.173566,-0.4826 -0.173567,-0.19473 -0.440267,-0.19473 -0.2667,0 -0.440267,0.18627 -0.173566,0.18203 -0.194733,0.49106 z"
           style="font-style:normal;font-variant:normal;font-weight:normal;font-stretch:normal;font-size:4.23333311px;font-family:FreeSans;-inkscape-font-specification:FreeSans;fill:#ffffff;stroke-width:0.26458332"
           id="path50" />
      </g>
    </g>
    <g
       id="g912"
       transform="translate(39.158333,-5.0743266e-6)">
      <rect
         style="fill:#800080;fill-opacity:1;fill-rule:nonzero;stroke:none;stroke-width:3.96875;stroke-linejoin:round;stroke-miterlimit:4;stroke-dasharray:none;stroke-opacity:1;paint-order:markers stroke fill"
         id="rect906"
         width="16.933332"
         height="16.933332"
         x="2e-07"
         y="280.06668" />
      <g
         aria-label="wall"
         style="font-style:normal;font-variant:normal;font-weight:normal;font-stretch:normal;font-size:26.45833206px;line-height:1.25;font-family:'DejaVu Serif';-inkscape-font-specification:'DejaVu Serif';letter-spacing:0px;word-spacing:0px;fill:#000000;fill-opacity:1;stroke:none;stroke-width:0.26458332"
         id="text910">
        <path
           d="M 7.3723575,290.02771 H 6.9701908 l -0.4487333,-1.7399 -0.4275666,1.7399 H 5.6959575 l -0.6434666,-2.21827 h 0.3894667 l 0.4529666,1.7272 0.4233333,-1.7272 h 0.4318 l 0.4360333,1.7272 0.4402666,-1.7272 h 0.3979334 z"
           style="font-style:normal;font-variant:normal;font-weight:normal;font-stretch:normal;font-size:4.23333311px;font-family:FreeSans;-inkscape-font-specification:FreeSans;fill:#ffffff;stroke-width:0.26458332"
           id="path53" />
        <path
           d="m 8.2909832,288.46561 q 0.0254,-0.71967 0.8889999,-0.71967 0.4106334,0 0.6223,0.15664 0.2116669,0.1524 0.2116669,0.44873 v 1.30387 q 0,0.17356 0.1905,0.17356 0.0381,0 0.0762,-0.008 v 0.2667 q -0.148167,0.0381 -0.2413,0.0381 -0.1693336,0 -0.2582336,-0.0804 -0.084667,-0.0762 -0.1058333,-0.24553 -0.3556,0.32597 -0.7535333,0.32597 -0.3344333,0 -0.5333999,-0.1778 -0.1947334,-0.1778 -0.1947334,-0.47837 0,-0.0974 0.016933,-0.1778 0.021167,-0.0804 0.042333,-0.1397 0.0254,-0.0635 0.084667,-0.1143 0.059267,-0.055 0.097367,-0.0889 0.042333,-0.0339 0.1354667,-0.0635 0.097367,-0.0339 0.1481666,-0.0466 0.0508,-0.0169 0.1778,-0.0381 0.127,-0.0212 0.1862667,-0.0296 0.059267,-0.008 0.2116666,-0.0296 0.2074334,-0.0254 0.2878667,-0.0804 0.080433,-0.055 0.080433,-0.1651 v -0.0931 q 0,-0.16087 -0.1312333,-0.24553 -0.127,-0.0847 -0.3640667,-0.0847 -0.2455333,0 -0.3725333,0.0974 -0.127,0.0931 -0.1481666,0.29633 z m 0.7069666,1.35043 q 0.2921,0 0.4783667,-0.1524 0.1862666,-0.15663 0.1862666,-0.33443 v -0.39793 q -0.1058333,0.0508 -0.3217333,0.0847 -0.2116667,0.0339 -0.3683,0.0593 -0.1566333,0.0254 -0.2836333,0.12277 -0.127,0.0931 -0.127,0.26246 0,0.16934 0.1143,0.26247 0.1143,0.0931 0.3217333,0.0931 z"
           style="font-style:normal;font-variant:normal;font-weight:normal;font-stretch:normal;font-size:4.23333311px;font-family:FreeSans;-inkscape-font-specification:FreeSans;fill:#ffffff;stroke-width:0.26458332"
           id="path55" />
        <path
           d="m 10.974913,286.94161 v 3.0861 h -0.355599 v -3.0861 z"
           style="font-style:normal;font-variant:normal;font-weight:normal;font-stretch:normal;font-size:4.23333311px;font-family:FreeSans;-inkscape-font-specification:FreeSans;fill:#ffffff;stroke-width:0.26458332"
           id="path57" />
        <path
           d="m 11.880842,286.94161 v 3.0861 h -0.3556 v -3.0861 z"
           style="font-style:normal;font-variant:normal;font-weight:normal;font-stretch:normal;font-size:4.23333311px;font-family:FreeSans;-inkscape-font-specification:FreeSans;fill:#ffffff;stroke-width:0.26458332"
           id="path59" />
      </g>
    </g>
  </g>
</svg>
