<?xml version="1.0" encoding="UTF-8" standalone="no"?>
<!-- Created with Inkscape (http://www.inkscape.org/) -->

<svg
   xmlns:dc="http://purl.org/dc/elements/1.1/"
   xmlns:cc="http://creativecommons.org/ns#"
   xmlns:rdf="http://www.w3.org/1999/02/22-rdf-syntax-ns#"
   xmlns:svg="http://www.w3.org/2000/svg"
   xmlns="http://www.w3.org/2000/svg"
   xmlns:xlink="http://www.w3.org/1999/xlink"
   xmlns:sodipodi="http://sodipodi.sourceforge.net/DTD/sodipodi-0.dtd"
   xmlns:inkscape="http://www.inkscape.org/namespaces/inkscape"
   width="64"
   height="64"
   viewBox="0 0 16.933333 16.933333"
   version="1.1"
   id="svg8"
   inkscape:version="0.92.5 (2060ec1f9f, 2020-04-08)"
   sodipodi:docname="fuel_powered_generator.svg">
  <defs
     id="defs2">
    <linearGradient
       inkscape:collect="always"
       id="linearGradient918">
      <stop
         style="stop-color:#a1a1a1;stop-opacity:1;"
         offset="0"
         id="stop914" />
      <stop
         style="stop-color:#a1a1a1;stop-opacity:0;"
         offset="1"
         id="stop916" />
    </linearGradient>
    <inkscape:perspective
       sodipodi:type="inkscape:persp3d"
       inkscape:vp_x="-4.5657358 : 8.4666665 : 1"
       inkscape:vp_y="0 : 1000 : 0"
       inkscape:vp_z="20.428652 : 8.4666665 : 1"
       inkscape:persp3d-origin="7.9314586 : 5.6444443 : 1"
       id="perspective842" />
    <linearGradient
       inkscape:collect="always"
       id="linearGradient836">
      <stop
         style="stop-color:#808000;stop-opacity:1;"
         offset="0"
         id="stop832" />
      <stop
         style="stop-color:#414141;stop-opacity:0"
         offset="1"
         id="stop834" />
    </linearGradient>
    <linearGradient
       inkscape:collect="always"
       xlink:href="#linearGradient836"
       id="linearGradient838"
       x1="32"
       y1="36"
       x2="63.99929"
       y2="35.915558"
       gradientUnits="userSpaceOnUse" />
    <linearGradient
       inkscape:collect="always"
       xlink:href="#linearGradient836"
       id="linearGradient871"
       gradientUnits="userSpaceOnUse"
       x1="32"
       y1="36"
       x2="63.99929"
       y2="35.915558" />
    <linearGradient
       inkscape:collect="always"
       xlink:href="#linearGradient836"
       id="linearGradient893"
       gradientUnits="userSpaceOnUse"
       x1="32"
       y1="36"
       x2="63.99929"
       y2="35.915558" />
    <linearGradient
       inkscape:collect="always"
       xlink:href="#linearGradient918"
       id="linearGradient920"
       x1="1.5875002"
       y1="286.94583"
       x2="5.8208337"
       y2="278.47919"
       gradientUnits="userSpaceOnUse" />
  </defs>
  <sodipodi:namedview
     id="base"
     pagecolor="#ffffff"
     bordercolor="#666666"
     borderopacity="1.0"
     inkscape:pageopacity="0.0"
     inkscape:pageshadow="2"
     inkscape:zoom="8.3883102"
     inkscape:cx="63.33429"
     inkscape:cy="40.396359"
     inkscape:document-units="mm"
     inkscape:current-layer="layer1"
     showgrid="true"
     units="px"
     inkscape:snap-grids="true"
     viewbox-x="0"
     viewbox-y="0"
     fit-margin-left="10"
     fit-margin-top="10"
     fit-margin-right="10"
     fit-margin-bottom="10"
     inkscape:snap-global="true"
     inkscape:window-width="1920"
     inkscape:window-height="1080"
     inkscape:window-x="0"
     inkscape:window-y="0"
     inkscape:window-maximized="0"
     inkscape:snap-bbox="true"
     inkscape:object-paths="false"
     inkscape:snap-bbox-midpoints="false"
     inkscape:snap-bbox-edge-midpoints="false"
     inkscape:bbox-nodes="false"
     inkscape:bbox-paths="false"
     inkscape:snap-intersection-paths="false"
     inkscape:snap-midpoints="false"
     inkscape:snap-nodes="true"
     inkscape:snap-others="true"
     inkscape:object-nodes="false"
     inkscape:snap-page="false">
    <inkscape:grid
       type="xygrid"
       id="grid17"
       spacingx="4.2333333"
       spacingy="4.2333333"
       empspacing="4"
       color="#3f3fff"
       opacity="0.08235294"
       empcolor="#3f3fff"
       empopacity="0.25098039" />
  </sodipodi:namedview>
  <metadata
     id="metadata5">
    <rdf:RDF>
      <cc:Work
         rdf:about="">
        <dc:format>image/svg+xml</dc:format>
        <dc:type
           rdf:resource="http://purl.org/dc/dcmitype/StillImage" />
        <dc:title></dc:title>
      </cc:Work>
    </rdf:RDF>
  </metadata>
  <g
     inkscape:label="Layer 1"
     inkscape:groupmode="layer"
     id="layer1"
     transform="translate(2.6458331,-282.71251)">
    <g
       id="g861">
      <path
         style="fill:#a1a100;stroke-width:0.10939559;paint-order:markers stroke fill;fill-opacity:1"
         d="M 64 8 L 62.732422 9.3164062 C 60.177665 11.970542 56.093909 13.543081 50.392578 14.068359 C 43.274792 14.724145 35.504115 12.424809 32.640625 8.8144531 L 32.025391 8.0410156 L 32.023438 31.632812 L 32.019531 55.226562 L 32.041016 55.201172 A 15.999999 8.3622249 0 0 0 32 55.638672 A 15.999999 8.3622249 0 0 0 48 64 A 15.999999 8.3622249 0 0 0 64 55.638672 A 15.999999 8.3622249 0 0 0 63.957031 55.041016 C 63.98053 54.70123 64 44.547015 64 31.716797 L 64 8 z "
         transform="matrix(0.26458333,0,0,0.26458333,-2.6458331,282.71251)"
         id="path840" />
      <ellipse
         ry="2.1166666"
         rx="4.2333331"
         cy="284.82916"
         cx="10.054167"
         id="path821"
         style="fill:#a1a100;stroke-width:0.02831042;paint-order:markers stroke fill;fill-opacity:1" />
      <path
         id="path823"
         transform="matrix(0.26458333,0,0,0.26458333,-2.6458331,282.71251)"
         d="M 64 8 L 62.732422 9.3164062 C 60.177665 11.970542 56.093909 13.543081 50.392578 14.068359 C 43.274792 14.724145 35.504115 12.424809 32.640625 8.8144531 L 32.025391 8.0410156 L 32.023438 31.632812 L 32.019531 55.226562 L 32.041016 55.201172 A 15.999999 8.3622249 0 0 0 32 55.638672 A 15.999999 8.3622249 0 0 0 48 64 A 15.999999 8.3622249 0 0 0 64 55.638672 A 15.999999 8.3622249 0 0 0 63.957031 55.041016 C 63.98053 54.70123 64 44.547015 64 31.716797 L 64 8 z "
         style="fill:url(#linearGradient838);stroke-width:0.10939559;paint-order:markers stroke fill;fill-opacity:1" />
    </g>
    <g
       id="g869"
       transform="matrix(0.49923706,0,0,0.49923706,-5.5138073,148.81572)">
      <path
         id="path863"
         transform="matrix(0.26458333,0,0,0.26458333,-2.6458331,282.71251)"
         d="M 64,8 62.732422,9.3164062 C 60.177665,11.970542 56.093909,13.543081 50.392578,14.068359 43.274792,14.724145 35.504115,12.424809 32.640625,8.8144531 l -0.615234,-0.7734375 -0.002,23.5917964 -0.0039,23.59375 0.02148,-0.02539 A 15.999999,8.3622249 0 0 0 32,55.638672 15.999999,8.3622249 0 0 0 48,64 15.999999,8.3622249 0 0 0 64,55.638672 15.999999,8.3622249 0 0 0 63.957031,55.041016 C 63.98053,54.70123 64,44.547015 64,31.716797 Z"
         style="fill:#a1a100;fill-opacity:1;stroke-width:0.10939559;paint-order:markers stroke fill"
         inkscape:connector-curvature="0" />
      <ellipse
         style="fill:#a1a100;fill-opacity:1;stroke-width:0.02831042;paint-order:markers stroke fill"
         id="ellipse865"
         cx="10.054167"
         cy="284.82916"
         rx="4.2333331"
         ry="2.1166666" />
      <path
         style="fill:url(#linearGradient871);fill-opacity:1;stroke-width:0.10939559;paint-order:markers stroke fill"
         d="M 64,8 62.732422,9.3164062 C 60.177665,11.970542 56.093909,13.543081 50.392578,14.068359 43.274792,14.724145 35.504115,12.424809 32.640625,8.8144531 l -0.615234,-0.7734375 -0.002,23.5917964 -0.0039,23.59375 0.02148,-0.02539 A 15.999999,8.3622249 0 0 0 32,55.638672 15.999999,8.3622249 0 0 0 48,64 15.999999,8.3622249 0 0 0 64,55.638672 15.999999,8.3622249 0 0 0 63.957031,55.041016 C 63.98053,54.70123 64,44.547015 64,31.716797 Z"
         transform="matrix(0.26458333,0,0,0.26458333,-2.6458331,282.71251)"
         id="path867"
         inkscape:connector-curvature="0" />
    </g>
    <g
       transform="matrix(0.49923706,0,0,0.49923706,-1.3090777,148.82127)"
       id="g891">
      <path
         inkscape:connector-curvature="0"
         style="fill:#a1a100;fill-opacity:1;stroke-width:0.10939559;paint-order:markers stroke fill"
         d="M 64,8 62.732422,9.3164062 C 60.177665,11.970542 56.093909,13.543081 50.392578,14.068359 43.274792,14.724145 35.504115,12.424809 32.640625,8.8144531 l -0.615234,-0.7734375 -0.002,23.5917964 -0.0039,23.59375 0.02148,-0.02539 A 15.999999,8.3622249 0 0 0 32,55.638672 15.999999,8.3622249 0 0 0 48,64 15.999999,8.3622249 0 0 0 64,55.638672 15.999999,8.3622249 0 0 0 63.957031,55.041016 C 63.98053,54.70123 64,44.547015 64,31.716797 Z"
         transform="matrix(0.26458333,0,0,0.26458333,-2.6458331,282.71251)"
         id="path885" />
      <ellipse
         ry="2.1166666"
         rx="4.2333331"
         cy="284.82916"
         cx="10.054167"
         id="ellipse887"
         style="fill:#a1a100;fill-opacity:1;stroke-width:0.02831042;paint-order:markers stroke fill" />
      <path
         inkscape:connector-curvature="0"
         id="path889"
         transform="matrix(0.26458333,0,0,0.26458333,-2.6458331,282.71251)"
         d="M 64,8 62.732422,9.3164062 C 60.177665,11.970542 56.093909,13.543081 50.392578,14.068359 43.274792,14.724145 35.504115,12.424809 32.640625,8.8144531 l -0.615234,-0.7734375 -0.002,23.5917964 -0.0039,23.59375 0.02148,-0.02539 A 15.999999,8.3622249 0 0 0 32,55.638672 15.999999,8.3622249 0 0 0 48,64 15.999999,8.3622249 0 0 0 64,55.638672 15.999999,8.3622249 0 0 0 63.957031,55.041016 C 63.98053,54.70123 64,44.547015 64,31.716797 Z"
         style="fill:url(#linearGradient893);fill-opacity:1;stroke-width:0.10939559;paint-order:markers stroke fill" />
    </g>
    <path
       id="path895"
       d="m -0.08422072,284.6849 -0.04374034,0.15507 c -0.0881571,0.31265 -0.2290753,0.49789 -0.42581124,0.55976 -0.24561359,0.0773 -0.5137565,-0.1936 -0.612567,-0.61889 l -0.02123,-0.0911 -6.9e-5,2.77905 -1.346e-4,2.77928 7.412e-4,-0.003 a 0.55211229,0.9850476 0 0 0 -0.00141,0.0515 0.55211229,0.9850476 0 0 0 0.55211236,0.98494 0.55211229,0.9850476 0 0 0 0.55211232,-0.98494 0.55211229,0.9850476 0 0 0 -0.0014827,-0.0704 c 8.1088e-4,-0.04 0.0014827,-1.23616 0.0014827,-2.74753 z"
       style="fill:#a1a100;fill-opacity:1;stroke-width:0.00697463;paint-order:markers stroke fill"
       inkscape:connector-curvature="0" />
    <ellipse
       style="fill:#b4b4b4;fill-opacity:1;stroke-width:0.0068219;paint-order:markers stroke fill"
       id="ellipse897"
       cx="-0.63633323"
       cy="284.68488"
       rx="0.55211222"
       ry="0.9423784" />
    <path
       style="fill:url(#linearGradient920);fill-opacity:1;stroke-width:0.00697463;paint-order:markers stroke fill;stroke:#ffff00"
       d="m -0.08422072,284.6849 -0.04374034,0.15507 c -0.0881571,0.31265 -0.2290753,0.49789 -0.42581124,0.55976 -0.24561359,0.0773 -0.5137565,-0.1936 -0.612567,-0.61889 l -0.02123,-0.0911 -6.9e-5,2.77905 -1.346e-4,2.77928 7.412e-4,-0.003 a 0.55211229,0.9850476 0 0 0 -0.00141,0.0515 0.55211229,0.9850476 0 0 0 0.55211236,0.98494 0.55211229,0.9850476 0 0 0 0.55211232,-0.98494 0.55211229,0.9850476 0 0 0 -0.0014827,-0.0704 c 8.1088e-4,-0.04 0.0014827,-1.23616 0.0014827,-2.74753 z"
       id="path899"
       inkscape:connector-curvature="0" />
  </g>
</svg>
