<?xml version="1.0" encoding="UTF-8" standalone="no"?>
<!-- Created with Inkscape (http://www.inkscape.org/) -->

<svg
   xmlns:dc="http://purl.org/dc/elements/1.1/"
   xmlns:cc="http://creativecommons.org/ns#"
   xmlns:rdf="http://www.w3.org/1999/02/22-rdf-syntax-ns#"
   xmlns:svg="http://www.w3.org/2000/svg"
   xmlns="http://www.w3.org/2000/svg"
   xmlns:xlink="http://www.w3.org/1999/xlink"
   xmlns:sodipodi="http://sodipodi.sourceforge.net/DTD/sodipodi-0.dtd"
   xmlns:inkscape="http://www.inkscape.org/namespaces/inkscape"
   width="305.99997"
   height="157.99998"
   viewBox="0 0 80.96249 41.804163"
   version="1.1"
   id="svg8"
   inkscape:version="0.92.5 (2060ec1f9f, 2020-04-08)"
   sodipodi:docname="sprites.svg">
  <defs
     id="defs2">
    <linearGradient
       inkscape:collect="always"
       id="linearGradient887">
      <stop
         style="stop-color:#ff00ff;stop-opacity:1;"
         offset="0"
         id="stop883" />
      <stop
         style="stop-color:#800080;stop-opacity:1"
         offset="1"
         id="stop885" />
    </linearGradient>
    <linearGradient
       inkscape:collect="always"
       xlink:href="#linearGradient887"
       id="linearGradient889"
       x1="24.719641"
       y1="287.16196"
       x2="28.394407"
       y2="297.83981"
       gradientUnits="userSpaceOnUse"
       gradientTransform="translate(-17.09817,0.15193805)" />
    <linearGradient
       inkscape:collect="always"
       xlink:href="#linearGradient887"
       id="linearGradient897"
       x1="4.2871404"
       y1="289.39798"
       x2="12.876406"
       y2="289.39798"
       gradientUnits="userSpaceOnUse"
       gradientTransform="translate(39.043223,-0.03682725)" />
    <linearGradient
       inkscape:collect="always"
       xlink:href="#linearGradient887"
       id="linearGradient901"
       gradientUnits="userSpaceOnUse"
       x1="4.2871404"
       y1="289.39798"
       x2="12.876406"
       y2="289.39798"
       gradientTransform="matrix(-1,0,0,1,75.785935,-0.03682285)" />
    <linearGradient
       inkscape:collect="always"
       xlink:href="#linearGradient887"
       id="linearGradient953"
       gradientUnits="userSpaceOnUse"
       gradientTransform="translate(2.4809965,0.15193082)"
       x1="24.719641"
       y1="287.16196"
       x2="28.394407"
       y2="297.83981" />
  </defs>
  <sodipodi:namedview
     id="base"
     pagecolor="#ffffff"
     bordercolor="#666666"
     borderopacity="1.0"
     inkscape:pageopacity="0.0"
     inkscape:pageshadow="2"
     inkscape:zoom="2.1640055"
     inkscape:cx="91.139128"
     inkscape:cy="67.657263"
     inkscape:document-units="mm"
     inkscape:current-layer="layer1"
     showgrid="true"
     units="px"
     inkscape:snap-grids="true"
     viewbox-x="0"
     viewbox-y="0"
     fit-margin-left="10"
     fit-margin-top="10"
     fit-margin-right="10"
     fit-margin-bottom="10"
     inkscape:snap-global="true"
     inkscape:window-width="1920"
     inkscape:window-height="1080"
     inkscape:window-x="0"
     inkscape:window-y="0"
     inkscape:window-maximized="0">
    <inkscape:grid
       type="xygrid"
       id="grid913"
       spacingx="19.579166"
       spacingy="19.579166"
       empspacing="1"
       originx="1.1544188e-07"
       originy="-1.8338766e-06" />
    <inkscape:grid
       type="xygrid"
       id="grid915"
       spacingx="19.579166"
       spacingy="19.579166"
       color="#3f3fff"
       opacity="0.1254902"
       empcolor="#3f3fff"
       empopacity="0.25098039"
       empspacing="1"
       originx="2.6458333"
       originy="2.6458315" />
  </sodipodi:namedview>
  <metadata
     id="metadata5">
    <rdf:RDF>
      <cc:Work
         rdf:about="">
        <dc:format>image/svg+xml</dc:format>
        <dc:type
           rdf:resource="http://purl.org/dc/dcmitype/StillImage" />
        <dc:title></dc:title>
      </cc:Work>
    </rdf:RDF>
  </metadata>
  <g
     inkscape:label="Layer 1"
     inkscape:groupmode="layer"
     id="layer1"
     transform="translate(2.6458331,-257.84168)">
    <path
       style="fill:url(#linearGradient889);fill-opacity:1;stroke:#000000;stroke-width:0.26458332px;stroke-linecap:butt;stroke-linejoin:miter;stroke-opacity:1"
       d="m 4.7299536,296.44324 c 2.871216,0.5208 5.3478484,0.67255 7.4650304,-0.18905 -0.399839,-4.36349 -0.488822,-8.65155 -1.606399,-13.13467 -1.3544964,-0.83366 -2.7717444,-0.85154 -4.2522324,-0.0473 -1.185043,4.2134 -1.407371,8.78782 -1.606399,13.37097 z"
       id="path863"
       inkscape:connector-curvature="0"
       sodipodi:nodetypes="cccccc" />
    <path
       style="fill:url(#linearGradient897);fill-opacity:1;stroke:#000000;stroke-width:0.26458332px;stroke-linecap:butt;stroke-linejoin:miter;stroke-opacity:1"
       d="m 44.145901,296.25447 c 2.900231,0.80047 5.832245,0.91724 7.606771,-0.28354 -1.876304,-4.09365 -0.530133,-9.82217 -2.69308,-13.32366 -1.818944,-1.23743 -5.308904,-1.18736 -5.24442,1.32291 -0.315605,5.00234 -0.733047,8.29004 0.330729,12.28429 z"
       id="path859"
       inkscape:connector-curvature="0"
       sodipodi:nodetypes="ccccc" />
    <path
       sodipodi:nodetypes="ccccc"
       inkscape:connector-curvature="0"
       id="path899"
       d="m 70.683256,296.25447 c -2.900231,0.80047 -5.832244,0.91724 -7.60677,-0.28354 1.876304,-4.09365 0.530133,-9.82217 2.69308,-13.32366 1.818943,-1.23743 5.308904,-1.18736 5.244419,1.32291 0.315606,5.00234 0.733048,8.29004 -0.330729,12.28429 z"
       style="fill:url(#linearGradient901);fill-opacity:1;stroke:#000000;stroke-width:0.26458332px;stroke-linecap:butt;stroke-linejoin:miter;stroke-opacity:1" />
    <path
       style="fill:#deaa87;stroke:#000000;stroke-width:0.21578524px;stroke-linecap:butt;stroke-linejoin:miter;stroke-opacity:1"
       d="m 6.0959529,280.98866 c -0.1586722,-1.30605 -0.4704133,-1.71235 1.0536673,-2.77329 2.2167176,-0.55035 4.4032048,0.29956 3.5214468,2.90795 -1.7642195,3.93037 -4.3630007,1.14342 -4.5751141,-0.13466 z"
       id="path923"
       inkscape:connector-curvature="0"
       sodipodi:nodetypes="cccc" />
    <path
       style="fill:#ff6600;stroke:#000000;stroke-width:0.33127612px;stroke-linecap:butt;stroke-linejoin:miter;stroke-opacity:1"
       d="m 6.5913032,278.18184 -0.9692194,2.05069 2.4441182,-1.59884 1.5170386,-0.0348 1.3484784,1.52933 -0.684923,-2.00632 0.115735,-1.2801 -0.98999,0.78388 -0.7163796,-1.08709 -0.4213995,1.15661 -1.8120186,-1.00797 z"
       id="path925"
       inkscape:connector-curvature="0"
       sodipodi:nodetypes="cccccccccccc" />
    <path
       sodipodi:nodetypes="cccc"
       inkscape:connector-curvature="0"
       id="path927"
       d="m 43.342489,280.56073 c -0.158672,-1.30605 -0.470413,-1.71235 1.053667,-2.77329 2.216718,-0.55035 4.403205,0.29956 3.521447,2.90795 -1.764219,3.93037 -4.363001,1.14342 -4.575114,-0.13466 z"
       style="fill:#deaa87;stroke:#000000;stroke-width:0.21578524px;stroke-linecap:butt;stroke-linejoin:miter;stroke-opacity:1" />
    <path
       style="fill:#deaa87;stroke:#000000;stroke-width:0.21578524px;stroke-linecap:butt;stroke-linejoin:miter;stroke-opacity:1"
       d="m 67.367671,280.43846 c -0.158672,-1.30605 -0.470413,-1.71235 1.053667,-2.77329 2.216718,-0.55035 4.403205,0.29956 3.521447,2.90795 -1.764219,3.93037 -4.363001,1.14342 -4.575114,-0.13466 z"
       id="path929"
       inkscape:connector-curvature="0"
       sodipodi:nodetypes="cccc" />
    <path
       style="fill:none;stroke:#000000;stroke-width:0.26458332px;stroke-linecap:butt;stroke-linejoin:miter;stroke-opacity:1"
       d="m 43.770418,280.10223 c 0.366864,-0.098 0.73921,-0.17737 1.100591,-0.29397 0.01939,-0.006 0.01968,-0.0664 0,-0.0611 -0.37243,0.0995 -0.733727,0.23673 -1.100591,0.3551"
       id="path931"
       inkscape:connector-curvature="0" />
    <path
       inkscape:connector-curvature="0"
       id="path933"
       d="m 71.605414,280.01578 c -0.366864,-0.098 -0.73921,-0.17737 -1.100591,-0.29397 -0.01939,-0.006 -0.01968,-0.0664 0,-0.0611 0.37243,0.0995 0.733727,0.23673 1.100591,0.3551"
       style="fill:none;stroke:#000000;stroke-width:0.26458332px;stroke-linecap:butt;stroke-linejoin:miter;stroke-opacity:1" />
    <path
       inkscape:connector-curvature="0"
       id="path935"
       d="m 8.8455271,280.57773 c 0.366864,-0.098 0.73921,-0.17737 1.100591,-0.29397 0.01939,-0.006 0.01968,-0.0664 0,-0.0611 -0.37243,0.0995 -0.733727,0.23673 -1.100591,0.3551"
       style="fill:none;stroke:#000000;stroke-width:0.26458332px;stroke-linecap:butt;stroke-linejoin:miter;stroke-opacity:1" />
    <path
       style="fill:none;stroke:#000000;stroke-width:0.2428191px;stroke-linecap:butt;stroke-linejoin:miter;stroke-opacity:1"
       d="m 8.0772083,280.54699 c -0.3728062,-0.0812 -0.7511832,-0.14701 -1.1184176,-0.24365 -0.019704,-0.005 -0.019999,-0.055 0,-0.0506 0.3784623,0.0825 0.7456114,0.1962 1.1184176,0.29431"
       id="path937"
       inkscape:connector-curvature="0" />
    <path
       inkscape:connector-curvature="0"
       id="path939"
       d="m 43.837839,277.26485 -0.969219,2.05069 2.444118,-1.59884 1.517039,-0.0348 1.348478,1.52933 -0.379259,-2.18972 0.421399,-0.7299 -1.601318,0.41708 -0.71638,-0.90369 -0.421399,0.97321 -1.812019,-1.00797 z"
       style="fill:#ff6600;stroke:#000000;stroke-width:0.33127612px;stroke-linecap:butt;stroke-linejoin:miter;stroke-opacity:1" />
    <path
       sodipodi:nodetypes="cccccc"
       inkscape:connector-curvature="0"
       id="path943"
       d="m 24.30912,296.44323 c 2.871216,0.5208 5.347849,0.67255 7.465031,-0.18905 -0.399839,-4.36349 -0.488822,-8.65155 -1.606399,-13.13467 -1.354497,-0.83366 -2.771745,-0.85154 -4.252233,-0.0473 -1.185043,4.2134 -1.407371,8.78782 -1.606399,13.37097 z"
       style="fill:url(#linearGradient953);fill-opacity:1;stroke:#000000;stroke-width:0.26458332px;stroke-linecap:butt;stroke-linejoin:miter;stroke-opacity:1" />
    <path
       sodipodi:nodetypes="cccc"
       inkscape:connector-curvature="0"
       id="path945"
       d="m 25.675119,280.98865 c -0.158672,-1.30605 -0.470413,-1.71235 1.053668,-2.77329 2.216717,-0.55035 4.403205,0.29956 3.521447,2.90795 -1.76422,3.93037 -4.363001,1.14342 -4.575115,-0.13466 z"
       style="fill:#deaa87;stroke:#000000;stroke-width:0.21578524px;stroke-linecap:butt;stroke-linejoin:miter;stroke-opacity:1" />
    <path
       inkscape:connector-curvature="0"
       id="path947"
       d="m 29.705473,278.18183 0.96922,2.05069 -1.408186,0.79516 c -0.661246,0.54834 -1.763564,0.3848 -2.750528,-0.044 l -1.150922,-0.85546 0.62379,-1.45613 -0.66593,-1.83029 1.601318,0.78388 0.71638,-0.90369 1.032728,0.91208 1.20069,-0.94684 z"
       style="fill:#ff6600;stroke:#000000;stroke-width:0.33127612px;stroke-linecap:butt;stroke-linejoin:miter;stroke-opacity:1"
       sodipodi:nodetypes="cccccccccccc" />
    <path
       style="fill:#ff6600;stroke:#000000;stroke-width:0.33127612px;stroke-linecap:butt;stroke-linejoin:miter;stroke-opacity:1"
       d="m 71.400563,277.26485 0.969219,2.05069 -2.444118,-1.59884 -1.517039,-0.0348 -1.348478,1.52933 0.379259,-2.18972 -0.421399,-0.7299 1.601318,0.41708 0.71638,-0.90369 0.421399,0.97321 1.812019,-1.00797 z"
       id="path955"
       inkscape:connector-curvature="0" />
  </g>
</svg>
